# xmcd
#
# Track frame offsets:
#	151
#	39001
#	76661
#	97255
#	141850
#	174133
#	189640
#	226165
#
# Disc length: 3254 seconds
#
# Revision: 0
# Processed by: cddbd v1.5.1PL2 Copyright (c) Steve Scherf et al.
# Submitted via: EasyCDDAExtractor 8.2.3.1
#
DISCID=550cb408
DTITLE=Blues Traveler - MDC Hatch Shell - Boston, MA 04-28-01 disc 2
DYEAR=2001
DGENRE=Blues
TTITLE0=The Path ->
TTITLE1=No Woman No Cry
TTITLE2=You Lost Me There
TTITLE3=Mulling It Over
TTITLE4=But Anyway
TTITLE5=Crash Burn
TTITLE6=Hook
TTITLE7=The Devil Went Down To Georgia
EXTD=
EXTT0=
EXTT1=
EXTT2=
EXTT3=
EXTT4=
EXTT5=
EXTT6=
EXTT7=
PLAYORDER=
